# xmcd
#
# Track frame offsets:
#	150
#	14740
#	24907
#	37245
#	46257
#	60257
#	76835
#	90430
#	101625
#	114065
#	124467
#	143567
#	155920
#	173642
#	191625
#	208335
#	220517
#	244545
#	255255
#	269510
#	283532
#	294735
#
# Disc length: 4138 seconds
#
# Revision: 0
# Processed by: cddbd v1.4PL0 Copyright (c) Steve Scherf et al.
# Submitted via: dBpowerAMP V4.0
#
DISCID=34102816
DTITLE=Earl Scruggs - Dueling Banjos/Live at Kansas State
DYEAR=1973
DGENRE=Bluegrass
TTITLE0=String Bender
TTITLE1=Peking Fling
TTITLE2=Black Mountain Blues
TTITLE3=Just Joshin'
TTITLE4=Dueling Banjos
TTITLE5=Lonesome Ruben
TTITLE6=John Hardy
TTITLE7=Flint Hill Special
TTITLE8=Randy Lynn Rag
TTITLE9=Fire Ball Mail
TTITLE10=T For Texas
TTITLE11=Bound in Jail All Night Long (Paul and Silas)
TTITLE12=Rambling 'Round Your CIty (Ramblin' Round)
TTITLE13=Sally Gooding
TTITLE14=Most Likely You Go Your Way (And I'll Go Mine)
TTITLE15=Carolina Boogie
TTITLE16=Everybody Wants to Go to Heaven
TTITLE17=You Ain't Going Nowhere
TTITLE18=Both Sides Now
TTITLE19=Good Woman's Love
TTITLE20=Bugle Call Rag
TTITLE21=Foggy Mountain Breakdown
EXTD=
EXTT0=
EXTT1=
EXTT2=
EXTT3=
EXTT4=
EXTT5=
EXTT6=
EXTT7=
EXTT8=
EXTT9=
EXTT10=
EXTT11=
EXTT12=
EXTT13=
EXTT14=
EXTT15=
EXTT16=
EXTT17=
EXTT18=
EXTT19=
EXTT20=
EXTT21=
PLAYORDER=
